<svg xmlns="http://www.w3.org/2000/svg" width="44" height="41" fill="none"><path fill="#C1301D" d="M35.202 36.9H39.6V41H22C9.85 41 0 31.822 0 20.5S9.85 0 22 0s22 9.178 22 20.5a19.337 19.337 0 0 1-2.318 9.17c-1.527 2.846-3.746 5.322-6.48 7.23ZM22 16.4a4.569 4.569 0 0 0 3.111-1.2c.825-.77 1.289-1.813 1.289-2.9s-.464-2.13-1.289-2.9A4.569 4.569 0 0 0 22 8.2a4.569 4.569 0 0 0-3.111 1.2c-.825.77-1.289 1.813-1.289 2.9s.464 2.13 1.289 2.9A4.569 4.569 0 0 0 22 16.4Zm-8.8 8.2a4.569 4.569 0 0 0 3.111-1.2c.825-.77 1.289-1.813 1.289-2.9s-.464-2.13-1.289-2.9a4.569 4.569 0 0 0-3.111-1.2 4.569 4.569 0 0 0-3.111 1.2c-.825.77-1.289 1.813-1.289 2.9s.464 2.13 1.289 2.9a4.569 4.569 0 0 0 3.111 1.2Zm17.6 0a4.569 4.569 0 0 0 3.111-1.2c.825-.77 1.289-1.813 1.289-2.9s-.464-2.13-1.289-2.9a4.569 4.569 0 0 0-3.111-1.2 4.569 4.569 0 0 0-3.111 1.2c-.825.77-1.289 1.813-1.289 2.9s.464 2.13 1.289 2.9a4.569 4.569 0 0 0 3.111 1.2ZM22 32.8a4.569 4.569 0 0 0 3.111-1.2c.825-.77 1.289-1.813 1.289-2.9s-.464-2.13-1.289-2.9A4.569 4.569 0 0 0 22 24.6a4.569 4.569 0 0 0-3.111 1.2c-.825.77-1.289 1.813-1.289 2.9s.464 2.13 1.289 2.9A4.569 4.569 0 0 0 22 32.8Z"/></svg>