<svg xmlns="http://www.w3.org/2000/svg" width="12" height="16" fill="none"><path fill="#786F6F" d="M6 0C4.41.002 2.884.665 1.76 1.843A6.448 6.448 0 0 0 0 6.286a6.418 6.418 0 0 0 1.209 3.771s.163.226.19.258L6 16l4.603-5.687c.024-.03.188-.256.188-.256v-.002A6.416 6.416 0 0 0 12 6.285a6.448 6.448 0 0 0-1.76-4.442C9.117.665 7.59.002 6 0Zm0 8.571c-.432 0-.853-.134-1.212-.385a2.266 2.266 0 0 1-.804-1.026 2.387 2.387 0 0 1-.124-1.32c.084-.444.292-.85.597-1.17.305-.32.694-.538 1.117-.626a2.09 2.09 0 0 1 1.26.13c.4.173.74.466.98.842.24.376.368.818.368 1.27 0 .606-.231 1.187-.64 1.615-.409.429-.964.67-1.542.67Z"/></svg>