<svg xmlns="http://www.w3.org/2000/svg" width="14" height="11" fill="CurrentColor"><path fill="#fff" d="M13.531 1.305a5.56 5.56 0 0 1-1.594.437 2.783 2.783 0 0 0 1.22-1.537 5.542 5.542 0 0 1-1.762.674 2.777 2.777 0 0 0-4.73 2.532A7.884 7.884 0 0 1 .941.511a2.775 2.775 0 0 0-.048 2.705c.216.404.527.747.908 1.001A2.77 2.77 0 0 1 .544 3.87v.035a2.777 2.777 0 0 0 2.227 2.723c-.409.11-.838.127-1.254.047a2.778 2.778 0 0 0 2.594 1.928A5.57 5.57 0 0 1 0 9.753 7.852 7.852 0 0 0 4.255 11c5.107 0 7.899-4.23 7.899-7.898 0-.12-.003-.24-.008-.36a5.644 5.644 0 0 0 1.384-1.435l.001-.002Z"/></svg>